<svg xmlns="http://www.w3.org/2000/svg" width="128" height="128" viewBox="0 0 33.867 33.867"><path d="m26.265 8.153 3.01-3.01q2.309 2.383 3.438 5.067 1.154 2.81 1.154 5.996 0 3.11-1.154 5.92-1.204 2.835-3.437 5.068-2.208 2.182-5.017 3.386-2.71 1.154-5.92 1.154-3.337 0-5.921-1.154-2.91-1.304-5.018-3.386-2.232-2.233-3.436-5.068-1.154-2.81-1.154-5.92 0-3.186 1.154-5.996Q5.143 7.4 7.4 5.143l.879-.878H0V0h13.948l1.606 1.606v13.948h-4.265V7.275l-.878.878Q8.755 9.81 7.902 11.841q-.828 2.032-.828 4.365 0 2.258.828 4.29t2.484 3.687q1.605 1.58 3.662 2.459 1.957.828 4.34.828 2.384 0 4.24-.828 2.157-.979 3.663-2.459 1.655-1.655 2.483-3.687.828-2.032.828-4.29 0-2.333-.828-4.365-.803-2.032-2.509-3.688z" aria-label="↻" style="font-size:51.377px;font-family:Donatello;-inkscape-font-specification:&quot;Donatello, Normal&quot;;letter-spacing:0;fill:#087f5b;stroke-width:6.42212;stroke-linejoin:bevel"/></svg>